<?xml version="1.0" encoding="UTF-8" standalone="no"?>
<!DOCTYPE svg PUBLIC "-//W3C//DTD SVG 1.1//EN" "http://www.w3.org/Graphics/SVG/1.1/DTD/svg11.dtd">
<!-- Generated by Microsoft Visio, SVG Export binary divider1.svg Page-1 -->
<svg xmlns="http://www.w3.org/2000/svg" xmlns:xlink="http://www.w3.org/1999/xlink" xmlns:ev="http://www.w3.org/2001/xml-events" xmlns:v="http://schemas.microsoft.com/visio/2003/SVGExtensions/" width="7.79167in" height="2.67188in" viewBox="0 0 561 192.375" xml:space="preserve" color-interpolation-filters="sRGB" class="st9">
	<v:documentProperties v:langID="1033" v:viewMarkup="false"/>

	<style type="text/css">
	<![CDATA[
		.st1 {stroke:#000000;stroke-linecap:round;stroke-linejoin:round;stroke-width:1}
		.st2 {fill:#eaf5f9;stroke:#000000;stroke-linecap:round;stroke-linejoin:round;stroke-width:1}
		.st3 {fill:none;stroke:#000000;stroke-linecap:round;stroke-linejoin:round;stroke-width:1}
		.st4 {fill:none;stroke:none;stroke-linecap:round;stroke-linejoin:round;stroke-width:0.75}
		.st5 {fill:#000000;font-family:Calibri;font-size:1.00001em}
		.st6 {font-size:1em}
		.st7 {stroke:#000000;stroke-linecap:round;stroke-linejoin:round;stroke-width:0.75}
		.st8 {font-size:0.499989em}
		.st9 {fill:none;fill-rule:evenodd;font-size:12px;overflow:visible;stroke-linecap:square;stroke-miterlimit:3}
	]]>
	</style>

	<g v:mID="0" v:index="1" v:groupContext="foregroundPage">
		<title>Page-1</title>
		<v:pageProperties v:drawingScale="1" v:pageScale="1" v:drawingUnits="19" v:shadowOffsetX="9" v:shadowOffsetY="-9"/>
		<g id="shape746-1" v:mID="746" v:groupContext="shape" transform="translate(53.25,350.625) rotate(180)">
			<title>Sheet.746</title>
			<path d="M0 192.38 L27 192.38" class="st1"/>
		</g>
		<g id="shape747-4" v:mID="747" v:groupContext="shape" transform="translate(53.25,-16.125)">
			<title>Rectangle.747</title>
			<v:userDefs>
				<v:ud v:nameU="visVersion" v:val="VT0(15):26"/>
			</v:userDefs>
			<rect x="0" y="39.3751" width="49.5" height="153" class="st2"/>
		</g>
		<g id="shape748-6" v:mID="748" v:groupContext="shape" transform="translate(245.625,153.572) rotate(90)">
			<title>Triangle.748</title>
			<v:userDefs>
				<v:ud v:nameU="visVersion" v:val="VT0(15):26"/>
			</v:userDefs>
			<path d="M9.18 192.38 L4.59 184.82 L0 192.38 L9.18 192.38 Z" class="st3"/>
		</g>
		<g id="shape749-8" v:mID="749" v:groupContext="shape" transform="translate(78,377.625) rotate(180)">
			<title>Sheet.749</title>
			<path d="M0 192.38 L51.75 192.38" class="st1"/>
		</g>
		<g id="shape750-11" v:mID="750" v:groupContext="shape" transform="translate(270.375,176.25) rotate(90)">
			<title>Sheet.750</title>
			<path d="M0 192.38 L9 192.38" class="st1"/>
		</g>
		<g id="shape751-14" v:mID="751" v:groupContext="shape" transform="translate(110.032,-173.625) scale(-1,1)">
			<title>Sheet.751</title>
			<desc>8-bit Counter</desc>
			<v:textBlock v:margins="rect(4,4,4,4)"/>
			<v:textRect cx="28.391" cy="185.625" width="56.79" height="13.5"/>
			<rect x="0" y="178.875" width="56.7819" height="13.5" class="st4"/>
			<text x="-52.78" y="182.62" transform="scale(-1,1)" class="st5" v:langID="1033"><v:paragraph v:spLine="-1"/><v:tabList/>8-bit<v:newlineChar/><tspan x="-52.78" dy="1em" class="st6">Counter</tspan></text>		</g>
		<g id="shape755-18" v:mID="755" v:groupContext="shape" transform="translate(125.25,229.125) rotate(180)">
			<title>Sheet.755</title>
			<path d="M0 192.38 L22.5 192.38" class="st1"/>
		</g>
		<g id="shape759-21" v:mID="759" v:groupContext="shape" transform="translate(102.75,-148.875) scale(-1,1)">
			<title>Sheet.759</title>
			<desc>B0</desc>
			<v:textBlock v:margins="rect(4,4,4,4)"/>
			<v:textRect cx="20.25" cy="185.625" width="40.5" height="13.5"/>
			<rect x="0" y="178.875" width="40.5" height="13.5" class="st4"/>
			<text x="-16.61" y="188.63" transform="scale(-1,1)" class="st5" v:langID="1033"><v:paragraph v:spLine="-1" v:horizAlign="2"/><v:tabList/>B0</text>		</g>
		<g id="shape761-24" v:mID="761" v:groupContext="shape" transform="translate(125.25,247.125) rotate(180)">
			<title>Sheet.761</title>
			<path d="M0 192.38 L22.5 192.38" class="st1"/>
		</g>
		<g id="shape762-27" v:mID="762" v:groupContext="shape" transform="translate(125.25,265.125) rotate(180)">
			<title>Sheet.762</title>
			<path d="M0 192.38 L22.5 192.38" class="st1"/>
		</g>
		<g id="shape763-30" v:mID="763" v:groupContext="shape" transform="translate(125.25,283.125) rotate(180)">
			<title>Sheet.763</title>
			<path d="M0 192.38 L22.5 192.38" class="st1"/>
		</g>
		<g id="shape764-33" v:mID="764" v:groupContext="shape" transform="translate(125.25,301.125) rotate(180)">
			<title>Sheet.764</title>
			<path d="M0 192.38 L22.5 192.38" class="st1"/>
		</g>
		<g id="shape765-36" v:mID="765" v:groupContext="shape" transform="translate(125.25,319.125) rotate(180)">
			<title>Sheet.765</title>
			<path d="M0 192.38 L22.5 192.38" class="st1"/>
		</g>
		<g id="shape766-39" v:mID="766" v:groupContext="shape" transform="translate(125.25,337.125) rotate(180)">
			<title>Sheet.766</title>
			<path d="M0 192.38 L22.5 192.38" class="st1"/>
		</g>
		<g id="shape767-42" v:mID="767" v:groupContext="shape" transform="translate(125.25,355.125) rotate(180)">
			<title>Sheet.767</title>
			<path d="M0 192.38 L22.5 192.38" class="st1"/>
		</g>
		<g id="shape768-45" v:mID="768" v:groupContext="shape" transform="translate(102.75,-130.875) scale(-1,1)">
			<title>Sheet.768</title>
			<desc>B1</desc>
			<v:textBlock v:margins="rect(4,4,4,4)"/>
			<v:textRect cx="20.25" cy="185.625" width="40.5" height="13.5"/>
			<rect x="0" y="178.875" width="40.5" height="13.5" class="st4"/>
			<text x="-16.61" y="188.63" transform="scale(-1,1)" class="st5" v:langID="1033"><v:paragraph v:spLine="-1" v:horizAlign="2"/><v:tabList/>B1</text>		</g>
		<g id="shape769-48" v:mID="769" v:groupContext="shape" transform="translate(102.75,-112.875) scale(-1,1)">
			<title>Sheet.769</title>
			<desc>B2</desc>
			<v:textBlock v:margins="rect(4,4,4,4)"/>
			<v:textRect cx="20.25" cy="185.625" width="40.5" height="13.5"/>
			<rect x="0" y="178.875" width="40.5" height="13.5" class="st4"/>
			<text x="-16.61" y="188.63" transform="scale(-1,1)" class="st5" v:langID="1033"><v:paragraph v:spLine="-1" v:horizAlign="2"/><v:tabList/>B2</text>		</g>
		<g id="shape770-51" v:mID="770" v:groupContext="shape" transform="translate(102.75,-94.875) scale(-1,1)">
			<title>Sheet.770</title>
			<desc>B3</desc>
			<v:textBlock v:margins="rect(4,4,4,4)"/>
			<v:textRect cx="20.25" cy="185.625" width="40.5" height="13.5"/>
			<rect x="0" y="178.875" width="40.5" height="13.5" class="st4"/>
			<text x="-16.61" y="188.63" transform="scale(-1,1)" class="st5" v:langID="1033"><v:paragraph v:spLine="-1" v:horizAlign="2"/><v:tabList/>B3</text>		</g>
		<g id="shape771-54" v:mID="771" v:groupContext="shape" transform="translate(102.75,-76.875) scale(-1,1)">
			<title>Sheet.771</title>
			<desc>B4</desc>
			<v:textBlock v:margins="rect(4,4,4,4)"/>
			<v:textRect cx="20.25" cy="185.625" width="40.5" height="13.5"/>
			<rect x="0" y="178.875" width="40.5" height="13.5" class="st4"/>
			<text x="-16.61" y="188.63" transform="scale(-1,1)" class="st5" v:langID="1033"><v:paragraph v:spLine="-1" v:horizAlign="2"/><v:tabList/>B4</text>		</g>
		<g id="shape772-57" v:mID="772" v:groupContext="shape" transform="translate(102.75,-58.875) scale(-1,1)">
			<title>Sheet.772</title>
			<desc>B5</desc>
			<v:textBlock v:margins="rect(4,4,4,4)"/>
			<v:textRect cx="20.25" cy="185.625" width="40.5" height="13.5"/>
			<rect x="0" y="178.875" width="40.5" height="13.5" class="st4"/>
			<text x="-16.61" y="188.63" transform="scale(-1,1)" class="st5" v:langID="1033"><v:paragraph v:spLine="-1" v:horizAlign="2"/><v:tabList/>B5</text>		</g>
		<g id="shape773-60" v:mID="773" v:groupContext="shape" transform="translate(102.75,-40.875) scale(-1,1)">
			<title>Sheet.773</title>
			<desc>B6</desc>
			<v:textBlock v:margins="rect(4,4,4,4)"/>
			<v:textRect cx="20.25" cy="185.625" width="40.5" height="13.5"/>
			<rect x="0" y="178.875" width="40.5" height="13.5" class="st4"/>
			<text x="-16.61" y="188.63" transform="scale(-1,1)" class="st5" v:langID="1033"><v:paragraph v:spLine="-1" v:horizAlign="2"/><v:tabList/>B6</text>		</g>
		<g id="shape774-63" v:mID="774" v:groupContext="shape" transform="translate(102.75,-22.875) scale(-1,1)">
			<title>Sheet.774</title>
			<desc>B7</desc>
			<v:textBlock v:margins="rect(4,4,4,4)"/>
			<v:textRect cx="20.25" cy="185.625" width="40.5" height="13.5"/>
			<rect x="0" y="178.875" width="40.5" height="13.5" class="st4"/>
			<text x="-16.61" y="188.63" transform="scale(-1,1)" class="st5" v:langID="1033"><v:paragraph v:spLine="-1" v:horizAlign="2"/><v:tabList/>B7</text>		</g>
		<g id="shape804-66" v:mID="804" v:groupContext="shape" transform="translate(25.125,-27.2859) scale(-1,1)">
			<title>Sheet.804</title>
			<desc>Clk</desc>
			<v:textBlock v:margins="rect(4,4,4,4)"/>
			<v:textRect cx="12.375" cy="185.625" width="24.76" height="13.5"/>
			<rect x="0" y="178.875" width="24.75" height="13.5" class="st4"/>
			<text x="-18.61" y="188.63" transform="scale(-1,1)" class="st5" v:langID="1033"><v:paragraph v:spLine="-1" v:horizAlign="2"/><v:tabList/>Clk</text>		</g>
		<g id="shape805-69" v:mID="805" v:groupContext="shape" transform="translate(26.25,-0.375) scale(-1,1)">
			<title>Sheet.805</title>
			<desc>Rst</desc>
			<v:textBlock v:margins="rect(4,4,4,4)"/>
			<v:textRect cx="12.375" cy="185.625" width="24.76" height="13.5"/>
			<rect x="0" y="178.875" width="24.75" height="13.5" class="st4"/>
			<text x="-19.23" y="188.63" transform="scale(-1,1)" class="st5" v:langID="1033"><v:paragraph v:spLine="-1" v:horizAlign="2"/><v:tabList/>Rst</text>		</g>
		<g id="shape826-72" v:mID="826" v:groupContext="shape" transform="translate(250.125,-146.625)">
			<title>Sheet.826</title>
			<path d="M0 183.38 L4.5 183.38 L4.5 192.38 L310.5 192.38" class="st7"/>
		</g>
		<g id="shape827-75" v:mID="827" v:groupContext="shape" transform="translate(250.125,-128.625)">
			<title>Sheet.827</title>
			<path d="M0 192.38 L9 192.38 L9 183.38 L18 183.38 L18 192.38" class="st7"/>
		</g>
		<g id="shape828-78" v:mID="828" v:groupContext="shape" transform="translate(268.125,-128.625)">
			<title>Sheet.828</title>
			<path d="M0 192.38 L9 192.38 L9 183.38 L18 183.38 L18 192.38" class="st7"/>
		</g>
		<g id="shape829-81" v:mID="829" v:groupContext="shape" transform="translate(286.125,-128.625)">
			<title>Sheet.829</title>
			<path d="M0 192.38 L9 192.38 L9 183.38 L18 183.38 L18 192.38" class="st7"/>
		</g>
		<g id="shape830-84" v:mID="830" v:groupContext="shape" transform="translate(304.125,-128.625)">
			<title>Sheet.830</title>
			<path d="M0 192.38 L9 192.38 L9 183.38 L18 183.38 L18 192.38" class="st7"/>
		</g>
		<g id="shape831-87" v:mID="831" v:groupContext="shape" transform="translate(322.125,-128.625)">
			<title>Sheet.831</title>
			<path d="M0 192.38 L9 192.38 L9 183.38 L18 183.38 L18 192.38" class="st7"/>
		</g>
		<g id="shape832-90" v:mID="832" v:groupContext="shape" transform="translate(340.125,-128.625)">
			<title>Sheet.832</title>
			<path d="M0 192.38 L9 192.38 L9 183.38 L18 183.38 L18 192.38" class="st7"/>
		</g>
		<g id="shape833-93" v:mID="833" v:groupContext="shape" transform="translate(358.125,-128.625)">
			<title>Sheet.833</title>
			<path d="M0 192.38 L9 192.38 L9 183.38 L18 183.38 L18 192.38" class="st7"/>
		</g>
		<g id="shape834-96" v:mID="834" v:groupContext="shape" transform="translate(376.125,-128.625)">
			<title>Sheet.834</title>
			<path d="M0 192.38 L9 192.38 L9 183.38 L18 183.38 L18 192.38" class="st7"/>
		</g>
		<g id="shape835-99" v:mID="835" v:groupContext="shape" transform="translate(394.125,-128.625)">
			<title>Sheet.835</title>
			<path d="M0 192.38 L9 192.38 L9 183.38 L18 183.38 L18 192.38" class="st7"/>
		</g>
		<g id="shape836-102" v:mID="836" v:groupContext="shape" transform="translate(412.125,-128.625)">
			<title>Sheet.836</title>
			<path d="M0 192.38 L9 192.38 L9 183.38 L18 183.38 L18 192.38" class="st7"/>
		</g>
		<g id="shape837-105" v:mID="837" v:groupContext="shape" transform="translate(430.125,-128.625)">
			<title>Sheet.837</title>
			<path d="M0 192.38 L9 192.38 L9 183.38 L18 183.38 L18 192.38" class="st7"/>
		</g>
		<g id="shape838-108" v:mID="838" v:groupContext="shape" transform="translate(448.125,-128.625)">
			<title>Sheet.838</title>
			<path d="M0 192.38 L9 192.38 L9 183.38 L18 183.38 L18 192.38" class="st7"/>
		</g>
		<g id="shape839-111" v:mID="839" v:groupContext="shape" transform="translate(466.125,-128.625)">
			<title>Sheet.839</title>
			<path d="M0 192.38 L9 192.38 L9 183.38 L18 183.38 L18 192.38" class="st7"/>
		</g>
		<g id="shape840-114" v:mID="840" v:groupContext="shape" transform="translate(484.125,-128.625)">
			<title>Sheet.840</title>
			<path d="M0 192.38 L9 192.38 L9 183.38 L18 183.38 L18 192.38" class="st7"/>
		</g>
		<g id="shape841-117" v:mID="841" v:groupContext="shape" transform="translate(502.125,-128.625)">
			<title>Sheet.841</title>
			<path d="M0 192.38 L9 192.38 L9 183.38 L18 183.38 L18 192.38" class="st7"/>
		</g>
		<g id="shape842-120" v:mID="842" v:groupContext="shape" transform="translate(520.125,-128.625)">
			<title>Sheet.842</title>
			<path d="M0 192.38 L9 192.38 L9 183.38 L18 183.38 L18 192.38" class="st7"/>
		</g>
		<g id="shape843-123" v:mID="843" v:groupContext="shape" transform="translate(250.125,-106.125)">
			<title>Sheet.843</title>
			<path d="M0 192.38 L9 192.38 L9 183.38 L27 183.38 L27 192.38" class="st7"/>
		</g>
		<g id="shape844-126" v:mID="844" v:groupContext="shape" transform="translate(277.125,-106.125)">
			<title>Sheet.844</title>
			<path d="M0 192.38 L18 192.38 L18 183.38 L36 183.38 L36 192.38" class="st7"/>
		</g>
		<g id="shape845-129" v:mID="845" v:groupContext="shape" transform="translate(313.125,-106.125)">
			<title>Sheet.845</title>
			<path d="M0 192.38 L18 192.38 L18 183.38 L36 183.38 L36 192.38" class="st7"/>
		</g>
		<g id="shape846-132" v:mID="846" v:groupContext="shape" transform="translate(349.125,-106.125)">
			<title>Sheet.846</title>
			<path d="M0 192.38 L18 192.38 L18 183.38 L36 183.38 L36 192.38" class="st7"/>
		</g>
		<g id="shape847-135" v:mID="847" v:groupContext="shape" transform="translate(385.125,-106.125)">
			<title>Sheet.847</title>
			<path d="M0 192.38 L18 192.38 L18 183.38 L36 183.38 L36 192.38" class="st7"/>
		</g>
		<g id="shape848-138" v:mID="848" v:groupContext="shape" transform="translate(421.125,-106.125)">
			<title>Sheet.848</title>
			<path d="M0 192.38 L18 192.38 L18 183.38 L36 183.38 L36 192.38" class="st7"/>
		</g>
		<g id="shape849-141" v:mID="849" v:groupContext="shape" transform="translate(457.125,-106.125)">
			<title>Sheet.849</title>
			<path d="M0 192.38 L18 192.38 L18 183.38 L36 183.38 L36 192.38" class="st7"/>
		</g>
		<g id="shape851-144" v:mID="851" v:groupContext="shape" transform="translate(556.125,-128.625)">
			<title>Sheet.851</title>
			<path d="M0 192.38 L4.5 192.38" class="st7"/>
		</g>
		<g id="shape877-147" v:mID="877" v:groupContext="shape" transform="translate(538.125,-128.625)">
			<title>Sheet.877</title>
			<path d="M0 192.38 L9 192.38 L9 183.38 L18 183.38 L18 192.38" class="st7"/>
		</g>
		<g id="shape881-150" v:mID="881" v:groupContext="shape" transform="translate(250.125,-88.125)">
			<title>Sheet.881</title>
			<path d="M0 192.38 L27.59 192.38 L27.59 183.38 L63 183.38 L63 192.38" class="st7"/>
		</g>
		<g id="shape889-153" v:mID="889" v:groupContext="shape" transform="translate(313.125,-88.125)">
			<title>Sheet.889</title>
			<path d="M0 192.38 L36.59 192.38 L36.59 183.38 L72 183.38 L72 192.38" class="st7"/>
		</g>
		<g id="shape890-156" v:mID="890" v:groupContext="shape" transform="translate(385.125,-88.125)">
			<title>Sheet.890</title>
			<path d="M0 192.38 L36.59 192.38 L36.59 183.38 L72 183.38 L72 192.38" class="st7"/>
		</g>
		<g id="shape891-159" v:mID="891" v:groupContext="shape" transform="translate(457.125,-88.125)">
			<title>Sheet.891</title>
			<path d="M0 192.38 L36.59 192.38 L36.59 183.38 L72 183.38 L72 192.38" class="st7"/>
		</g>
		<g id="shape892-162" v:mID="892" v:groupContext="shape" transform="translate(493.125,-106.125)">
			<title>Sheet.892</title>
			<path d="M0 192.38 L18 192.38 L18 183.38 L36 183.38 L36 192.38" class="st7"/>
		</g>
		<g id="shape893-165" v:mID="893" v:groupContext="shape" transform="translate(250.125,-70.125)">
			<title>Sheet.893</title>
			<path d="M0 192.38 L63 192.38 L63 183.38 L135 183.38 L135 192.38" class="st7"/>
		</g>
		<g id="shape894-168" v:mID="894" v:groupContext="shape" transform="translate(385.125,-70.125)">
			<title>Sheet.894</title>
			<path d="M0 192.38 L9 192.38 L72 192.38 L72 183.38 L144 183.38 L144 192.38" class="st7"/>
		</g>
		<g id="shape895-171" v:mID="895" v:groupContext="shape" transform="translate(250.125,-52.125)">
			<title>Sheet.895</title>
			<path d="M0 192.38 L17.44 192.38 L135 192.38 L135 183.38 L279 183.38 L279 192.38" class="st7"/>
		</g>
		<g id="shape896-174" v:mID="896" v:groupContext="shape" transform="translate(529.125,-106.125)">
			<title>Sheet.896</title>
			<path d="M0 192.38 L18 192.38 L18 183.38 L31.5 183.38" class="st7"/>
		</g>
		<g id="shape897-177" v:mID="897" v:groupContext="shape" transform="translate(529.125,-88.125)">
			<title>Sheet.897</title>
			<path d="M0 192.38 L31.5 192.38" class="st7"/>
		</g>
		<g id="shape898-180" v:mID="898" v:groupContext="shape" transform="translate(529.125,-70.125)">
			<title>Sheet.898</title>
			<path d="M0 192.38 L31.5 192.38" class="st7"/>
		</g>
		<g id="shape899-183" v:mID="899" v:groupContext="shape" transform="translate(529.125,-52.125)">
			<title>Sheet.899</title>
			<path d="M0 192.38 L31.5 192.38" class="st7"/>
		</g>
		<g id="shape900-186" v:mID="900" v:groupContext="shape" transform="translate(250.125,-34.125)">
			<title>Sheet.900</title>
			<path d="M0 192.38 L279 192.38 L279 183.38 L310.5 183.38" class="st7"/>
		</g>
		<g id="shape901-189" v:mID="901" v:groupContext="shape" transform="translate(247.875,-144.375) scale(-1,1)">
			<title>Sheet.901</title>
			<desc>Rst</desc>
			<v:textBlock v:margins="rect(4,4,4,4)"/>
			<v:textRect cx="12.375" cy="185.625" width="24.76" height="13.5"/>
			<rect x="0" y="178.875" width="24.75" height="13.5" class="st4"/>
			<text x="-19.23" y="188.63" transform="scale(-1,1)" class="st5" v:langID="1033"><v:paragraph v:spLine="-1" v:horizAlign="2"/><v:tabList/>Rst</text>		</g>
		<g id="shape902-192" v:mID="902" v:groupContext="shape" transform="translate(247.875,-126.375) scale(-1,1)">
			<title>Sheet.902</title>
			<desc>Clk</desc>
			<v:textBlock v:margins="rect(4,4,4,4)"/>
			<v:textRect cx="12.375" cy="185.625" width="24.76" height="13.5"/>
			<rect x="0" y="178.875" width="24.75" height="13.5" class="st4"/>
			<text x="-18.61" y="188.63" transform="scale(-1,1)" class="st5" v:langID="1033"><v:paragraph v:spLine="-1" v:horizAlign="2"/><v:tabList/>Clk</text>		</g>
		<g id="shape909-195" v:mID="909" v:groupContext="shape" transform="translate(165.75,-151.125) scale(-1,1)">
			<title>Sheet.909</title>
			<desc>Clk / 2</desc>
			<v:textBlock v:margins="rect(4,4,4,4)"/>
			<v:textRect cx="20.25" cy="187.875" width="40.5" height="9"/>
			<rect x="0" y="183.375" width="40.5" height="9" class="st4"/>
			<text x="-36.5" y="190.88" transform="scale(-1,1)" class="st5" v:langID="1033"><v:paragraph v:spLine="-1"/><v:tabList/>Clk<tspan class="st8"> </tspan>/<tspan class="st8"> </tspan>2</text>		</g>
		<g id="shape910-200" v:mID="910" v:groupContext="shape" transform="translate(165.75,-133.125) scale(-1,1)">
			<title>Sheet.910</title>
			<desc>Clk / 4</desc>
			<v:textBlock v:margins="rect(4,4,4,4)"/>
			<v:textRect cx="20.25" cy="187.875" width="40.5" height="9"/>
			<rect x="0" y="183.375" width="40.5" height="9" class="st4"/>
			<text x="-36.5" y="190.88" transform="scale(-1,1)" class="st5" v:langID="1033"><v:paragraph v:spLine="-1"/><v:tabList/>Clk<tspan class="st8"> </tspan>/<tspan class="st8"> </tspan>4</text>		</g>
		<g id="shape911-205" v:mID="911" v:groupContext="shape" transform="translate(165.75,-115.125) scale(-1,1)">
			<title>Sheet.911</title>
			<desc>Clk / 8</desc>
			<v:textBlock v:margins="rect(4,4,4,4)"/>
			<v:textRect cx="20.25" cy="187.875" width="40.5" height="9"/>
			<rect x="0" y="183.375" width="40.5" height="9" class="st4"/>
			<text x="-36.5" y="190.88" transform="scale(-1,1)" class="st5" v:langID="1033"><v:paragraph v:spLine="-1"/><v:tabList/>Clk<tspan class="st8"> </tspan>/<tspan class="st8"> </tspan>8</text>		</g>
		<g id="shape912-210" v:mID="912" v:groupContext="shape" transform="translate(174.75,-97.125) scale(-1,1)">
			<title>Sheet.912</title>
			<desc>Clk / 16</desc>
			<v:textBlock v:margins="rect(4,4,4,4)"/>
			<v:textRect cx="24.75" cy="187.875" width="49.5" height="9"/>
			<rect x="0" y="183.375" width="49.5" height="9" class="st4"/>
			<text x="-45.5" y="190.88" transform="scale(-1,1)" class="st5" v:langID="1033"><v:paragraph v:spLine="-1"/><v:tabList/>Clk<tspan class="st8"> </tspan>/<tspan class="st8"> </tspan>16</text>		</g>
		<g id="shape913-215" v:mID="913" v:groupContext="shape" transform="translate(174.75,-79.125) scale(-1,1)">
			<title>Sheet.913</title>
			<desc>Clk / 32</desc>
			<v:textBlock v:margins="rect(4,4,4,4)"/>
			<v:textRect cx="24.75" cy="187.875" width="49.5" height="9"/>
			<rect x="0" y="183.375" width="49.5" height="9" class="st4"/>
			<text x="-45.5" y="190.88" transform="scale(-1,1)" class="st5" v:langID="1033"><v:paragraph v:spLine="-1"/><v:tabList/>Clk<tspan class="st8"> </tspan>/<tspan class="st8"> </tspan>32</text>		</g>
		<g id="shape914-220" v:mID="914" v:groupContext="shape" transform="translate(174.75,-61.125) scale(-1,1)">
			<title>Sheet.914</title>
			<desc>Clk / 64</desc>
			<v:textBlock v:margins="rect(4,4,4,4)"/>
			<v:textRect cx="24.75" cy="187.875" width="49.5" height="9"/>
			<rect x="0" y="183.375" width="49.5" height="9" class="st4"/>
			<text x="-45.5" y="190.88" transform="scale(-1,1)" class="st5" v:langID="1033"><v:paragraph v:spLine="-1"/><v:tabList/>Clk<tspan class="st8"> </tspan>/<tspan class="st8"> </tspan>64</text>		</g>
		<g id="shape915-225" v:mID="915" v:groupContext="shape" transform="translate(174.75,-43.125) scale(-1,1)">
			<title>Sheet.915</title>
			<desc>Clk / 128</desc>
			<v:textBlock v:margins="rect(4,4,4,4)"/>
			<v:textRect cx="24.75" cy="187.875" width="49.5" height="9"/>
			<rect x="0" y="183.375" width="49.5" height="9" class="st4"/>
			<text x="-45.5" y="190.88" transform="scale(-1,1)" class="st5" v:langID="1033"><v:paragraph v:spLine="-1"/><v:tabList/>Clk<tspan class="st8"> </tspan>/<tspan class="st8"> </tspan>128</text>		</g>
		<g id="shape916-230" v:mID="916" v:groupContext="shape" transform="translate(174.75,-25.125) scale(-1,1)">
			<title>Sheet.916</title>
			<desc>Clk / 256</desc>
			<v:textBlock v:margins="rect(4,4,4,4)"/>
			<v:textRect cx="24.75" cy="187.875" width="49.5" height="9"/>
			<rect x="0" y="183.375" width="49.5" height="9" class="st4"/>
			<text x="-45.5" y="190.88" transform="scale(-1,1)" class="st5" v:langID="1033"><v:paragraph v:spLine="-1"/><v:tabList/>Clk<tspan class="st8"> </tspan>/<tspan class="st8"> </tspan>256</text>		</g>
		<g id="shape917-235" v:mID="917" v:groupContext="shape" transform="translate(247.875,-106.125) scale(-1,1)">
			<title>Sheet.917</title>
			<desc>Clk / 2</desc>
			<v:textBlock v:margins="rect(4,4,4,4)"/>
			<v:textRect cx="20.25" cy="187.875" width="40.5" height="9"/>
			<rect x="0" y="183.375" width="40.5" height="9" class="st4"/>
			<text x="-32.04" y="190.88" transform="scale(-1,1)" class="st5" v:langID="1033"><v:paragraph v:spLine="-1" v:horizAlign="2"/><v:tabList/>Clk<tspan class="st8"> </tspan>/<tspan class="st8"> </tspan>2</text>		</g>
		<g id="shape918-240" v:mID="918" v:groupContext="shape" transform="translate(247.875,-88.125) scale(-1,1)">
			<title>Sheet.918</title>
			<desc>Clk / 4</desc>
			<v:textBlock v:margins="rect(4,4,4,4)"/>
			<v:textRect cx="20.25" cy="187.875" width="40.5" height="9"/>
			<rect x="0" y="183.375" width="40.5" height="9" class="st4"/>
			<text x="-32.04" y="190.88" transform="scale(-1,1)" class="st5" v:langID="1033"><v:paragraph v:spLine="-1" v:horizAlign="2"/><v:tabList/>Clk<tspan class="st8"> </tspan>/<tspan class="st8"> </tspan>4</text>		</g>
		<g id="shape920-245" v:mID="920" v:groupContext="shape" transform="translate(247.875,-70.125) scale(-1,1)">
			<title>Sheet.920</title>
			<desc>Clk / 8</desc>
			<v:textBlock v:margins="rect(4,4,4,4)"/>
			<v:textRect cx="20.25" cy="187.875" width="40.5" height="9"/>
			<rect x="0" y="183.375" width="40.5" height="9" class="st4"/>
			<text x="-32.04" y="190.88" transform="scale(-1,1)" class="st5" v:langID="1033"><v:paragraph v:spLine="-1" v:horizAlign="2"/><v:tabList/>Clk<tspan class="st8"> </tspan>/<tspan class="st8"> </tspan>8</text>		</g>
		<g id="shape921-250" v:mID="921" v:groupContext="shape" transform="translate(247.875,-52.125) scale(-1,1)">
			<title>Sheet.921</title>
			<desc>Clk / 16</desc>
			<v:textBlock v:margins="rect(4,4,4,4)"/>
			<v:textRect cx="24.75" cy="187.875" width="49.5" height="9"/>
			<rect x="0" y="183.375" width="49.5" height="9" class="st4"/>
			<text x="-38.12" y="190.88" transform="scale(-1,1)" class="st5" v:langID="1033"><v:paragraph v:spLine="-1" v:horizAlign="2"/><v:tabList/>Clk<tspan class="st8"> </tspan>/<tspan class="st8"> </tspan>16</text>		</g>
		<g id="shape922-255" v:mID="922" v:groupContext="shape" transform="translate(247.875,-34.125) scale(-1,1)">
			<title>Sheet.922</title>
			<desc>Clk / 32</desc>
			<v:textBlock v:margins="rect(4,4,4,4)"/>
			<v:textRect cx="24.75" cy="187.875" width="49.5" height="9"/>
			<rect x="0" y="183.375" width="49.5" height="9" class="st4"/>
			<text x="-38.12" y="190.88" transform="scale(-1,1)" class="st5" v:langID="1033"><v:paragraph v:spLine="-1" v:horizAlign="2"/><v:tabList/>Clk<tspan class="st8"> </tspan>/<tspan class="st8"> </tspan>32</text>		</g>
	</g>
</svg>