<?xml version="1.0" encoding="UTF-8" standalone="no"?>
<!-- Created with Inkscape (http://www.inkscape.org/) -->
<svg xmlns:svg="http://www.w3.org/2000/svg" xmlns="http://www.w3.org/2000/svg" xmlns:xlink="http://www.w3.org/1999/xlink" version="1.0" width="830" height="310" id="svg5638">
  <defs id="defs5640"/>
  <rect width="830" height="310" x="0" y="-3.8281e-07" id="rect7376" style="fill:#ffffff;fill-opacity:1;fill-rule:nonzero;stroke:none;stroke-width:1;stroke-linecap:butt;stroke-linejoin:miter;marker:none;marker-start:none;marker-mid:none;marker-end:none;stroke-miterlimit:4;stroke-dasharray:none;stroke-dashoffset:0;stroke-opacity:1;visibility:visible;display:inline;overflow:visible;enable-background:accumulate"/>
  <rect width="190" height="250" x="470" y="30" id="rect7277" style="fill:#fff6d5;fill-opacity:1;fill-rule:nonzero;stroke:#000000;stroke-width:1;stroke-linecap:butt;stroke-linejoin:miter;marker:none;marker-start:none;marker-mid:none;marker-end:none;stroke-miterlimit:4;stroke-dasharray:none;stroke-dashoffset:0;stroke-opacity:1;visibility:visible;display:inline;overflow:visible;enable-background:accumulate"/>
  <rect width="190" height="250" x="170" y="30" id="rect7197" style="fill:#fff6d5;fill-opacity:1;fill-rule:nonzero;stroke:#000000;stroke-width:1;stroke-linecap:butt;stroke-linejoin:miter;marker:none;marker-start:none;marker-mid:none;marker-end:none;stroke-miterlimit:4;stroke-dasharray:none;stroke-dashoffset:0;stroke-opacity:1;visibility:visible;display:inline;overflow:visible;enable-background:accumulate"/>
  <g transform="translate(90,97.638)" id="g7213">
    <rect width="55" height="130" x="130" y="-37.638" id="rect6304" style="opacity:1;fill:#ffdb9f;fill-opacity:1;fill-rule:nonzero;stroke:#000000;stroke-width:0.5;stroke-linecap:butt;stroke-linejoin:miter;marker:none;marker-start:none;marker-mid:none;marker-end:none;stroke-miterlimit:4;stroke-dasharray:none;stroke-dashoffset:0;stroke-opacity:1;visibility:visible;display:inline;overflow:visible;enable-background:accumulate"/>
    <rect width="55" height="25" x="130" y="107.36" id="rect7199" style="opacity:1;fill:#ffdb9f;fill-opacity:1;fill-rule:nonzero;stroke:#000000;stroke-width:0.5;stroke-linecap:butt;stroke-linejoin:miter;marker:none;marker-start:none;marker-mid:none;marker-end:none;stroke-miterlimit:4;stroke-dasharray:none;stroke-dashoffset:0;stroke-opacity:1;visibility:visible;display:inline;overflow:visible;enable-background:accumulate"/>
    <path d="M 157.5,92.362 L 157.5,107.36" id="path7201" style="fill:none;fill-rule:evenodd;stroke:#000000;stroke-width:1px;stroke-linecap:butt;stroke-linejoin:miter;stroke-opacity:1"/>
    <path d="M 157.5,132.36 L 157.5,147.36" id="path7203" style="fill:none;fill-rule:evenodd;stroke:#000000;stroke-width:1px;stroke-linecap:butt;stroke-linejoin:miter;stroke-opacity:1"/>
    <text x="144.74414" y="124.87292" id="text7209" xml:space="preserve" style="font-size:14px;font-style:normal;font-weight:normal;fill:#000000;fill-opacity:1;stroke:none;stroke-width:1px;stroke-linecap:butt;stroke-linejoin:miter;stroke-opacity:1;font-family:Bitstream Vera Sans"><tspan x="144.74414" y="124.87292" id="tspan7211">PLL</tspan></text>
  </g>
  <use transform="translate(335,0)" id="use7221" x="0" y="0" width="744.09" height="1052.4" xlink:href="#g7213"/>
  <path d="M 305,150.01 L 305,180.01 L 335,165.01 L 305,150.01 z M 495,150.01 L 495,180.01 L 525,165.01 L 495,150.01 z" id="path6306" style="fill:#0000ff;fill-rule:evenodd;stroke:#000000;stroke-width:0.5;stroke-linecap:butt;stroke-linejoin:miter;stroke-miterlimit:4;stroke-dasharray:none;stroke-opacity:1"/>
  <text x="391.63867" y="50" id="text7110" xml:space="preserve" style="font-size:14px;font-style:normal;font-weight:normal;fill:#000000;fill-opacity:1;stroke:none;stroke-width:1px;stroke-linecap:butt;stroke-linejoin:miter;stroke-opacity:1;font-family:Bitstream Vera Sans"><tspan x="391.63867" y="50" id="tspan7112">Cable</tspan></text>
  <g transform="translate(90,97.638)" id="g7158">
    <path d="M 260,-30.138 C 260,-28.757 258.88,-27.638 257.5,-27.638 C 256.12,-27.638 255,-28.757 255,-30.138 C 255,-31.519 256.12,-32.638 257.5,-32.638 C 258.88,-32.638 260,-31.519 260,-30.138 z" transform="translate(-26.651,7.5)" id="path7082" style="opacity:1;fill:none;fill-opacity:1;fill-rule:nonzero;stroke:#000000;stroke-width:0.5;stroke-linecap:butt;stroke-linejoin:miter;marker:none;marker-start:none;marker-mid:none;marker-end:none;stroke-miterlimit:4;stroke-dasharray:none;stroke-dashoffset:0;stroke-opacity:1;visibility:visible;display:inline;overflow:visible;enable-background:accumulate"/>
    <path d="M 233,-22.638 L 290,-22.638" id="path7084" style="fill:none;fill-rule:evenodd;stroke:#000000;stroke-width:1px;stroke-linecap:butt;stroke-linejoin:miter;stroke-opacity:1"/>
    <path d="M 225,-2.6378 L 290,-2.6378" id="path7086" style="fill:none;fill-rule:evenodd;stroke:#000000;stroke-width:1px;stroke-linecap:butt;stroke-linejoin:miter;stroke-opacity:1"/>
    <path d="M 350,-22.638 L 405,-22.638" id="path7088" style="fill:none;fill-rule:evenodd;stroke:#000000;stroke-width:1px;stroke-linecap:butt;stroke-linejoin:miter;stroke-opacity:1"/>
    <path d="M 350,-2.6378 L 405,-2.6378" id="path7090" style="fill:none;fill-rule:evenodd;stroke:#000000;stroke-width:1px;stroke-linecap:butt;stroke-linejoin:miter;stroke-opacity:1"/>
    <path d="M 290,-22.638 C 300,-22.638 297.5,-2.6378 305,-2.6378 C 312.5,-2.6378 310,-22.638 320,-22.638 M 320,-22.638 C 330,-22.638 327.5,-2.6378 335,-2.6378 C 342.5,-2.6378 340,-22.638 350,-22.638" id="path7094" style="fill:none;fill-rule:evenodd;stroke:#000000;stroke-width:1;stroke-linecap:butt;stroke-linejoin:miter;stroke-miterlimit:4;stroke-dasharray:3, 1;stroke-dashoffset:0;stroke-opacity:1"/>
    <path d="M 290,-2.6378 C 300,-2.6378 297.5,-22.638 305,-22.638 C 312.5,-22.638 310,-2.6378 320,-2.6378 M 320,-2.6378 C 330,-2.6378 327.5,-22.638 335,-22.638 C 342.5,-22.638 340,-2.6378 350,-2.6378" id="path7100" style="fill:none;fill-rule:evenodd;stroke:#000000;stroke-width:1;stroke-linecap:butt;stroke-linejoin:miter;stroke-miterlimit:4;stroke-dasharray:3, 1;stroke-dashoffset:0;stroke-opacity:1"/>
    <path d="M 185,-12.638 L 215,-12.638" id="path7104" style="fill:none;fill-rule:evenodd;stroke:#000000;stroke-width:1px;stroke-linecap:butt;stroke-linejoin:miter;stroke-opacity:1"/>
    <path d="M 435,-12.638 L 465,-12.638" id="path7106" style="fill:none;fill-rule:evenodd;stroke:#000000;stroke-width:1px;stroke-linecap:butt;stroke-linejoin:miter;stroke-opacity:1"/>
    <path d="M 260,-30.138 C 260,-28.757 258.88,-27.638 257.5,-27.638 C 256.12,-27.638 255,-28.757 255,-30.138 C 255,-31.519 256.12,-32.638 257.5,-32.638 C 258.88,-32.638 260,-31.519 260,-30.138 z" transform="translate(-26.651,7.5)" id="path7116" style="opacity:1;fill:none;fill-opacity:1;fill-rule:nonzero;stroke:#000000;stroke-width:0.5;stroke-linecap:butt;stroke-linejoin:miter;marker:none;marker-start:none;marker-mid:none;marker-end:none;stroke-miterlimit:4;stroke-dasharray:none;stroke-dashoffset:0;stroke-opacity:1;visibility:visible;display:inline;overflow:visible;enable-background:accumulate"/>
    <path d="M 233,-22.638 L 290,-22.638" id="path7118" style="fill:none;fill-rule:evenodd;stroke:#000000;stroke-width:1px;stroke-linecap:butt;stroke-linejoin:miter;stroke-opacity:1"/>
    <path d="M 225,-2.6378 L 290,-2.6378" id="path7120" style="fill:none;fill-rule:evenodd;stroke:#000000;stroke-width:1px;stroke-linecap:butt;stroke-linejoin:miter;stroke-opacity:1"/>
    <path d="M 350,-22.638 L 405,-22.638" id="path7122" style="fill:none;fill-rule:evenodd;stroke:#000000;stroke-width:1px;stroke-linecap:butt;stroke-linejoin:miter;stroke-opacity:1"/>
    <path d="M 350,-2.6378 L 405,-2.6378" id="path7124" style="fill:none;fill-rule:evenodd;stroke:#000000;stroke-width:1px;stroke-linecap:butt;stroke-linejoin:miter;stroke-opacity:1"/>
    <path d="M 290,-22.638 C 300,-22.638 297.5,-2.6378 305,-2.6378 C 312.5,-2.6378 310,-22.638 320,-22.638 M 320,-22.638 C 330,-22.638 327.5,-2.6378 335,-2.6378 C 342.5,-2.6378 340,-22.638 350,-22.638" id="path7126" style="fill:none;fill-rule:evenodd;stroke:#000000;stroke-width:1;stroke-linecap:butt;stroke-linejoin:miter;stroke-miterlimit:4;stroke-dasharray:3, 1;stroke-dashoffset:0;stroke-opacity:1"/>
    <path d="M 290,-2.6378 C 300,-2.6378 297.5,-22.638 305,-22.638 C 312.5,-22.638 310,-2.6378 320,-2.6378 M 320,-2.6378 C 330,-2.6378 327.5,-22.638 335,-22.638 C 342.5,-22.638 340,-2.6378 350,-2.6378" id="path7128" style="fill:none;fill-rule:evenodd;stroke:#000000;stroke-width:1;stroke-linecap:butt;stroke-linejoin:miter;stroke-miterlimit:4;stroke-dasharray:3, 1;stroke-dashoffset:0;stroke-opacity:1"/>
    <path d="M 185,-12.638 L 215,-12.638" id="path7132" style="fill:none;fill-rule:evenodd;stroke:#000000;stroke-width:1px;stroke-linecap:butt;stroke-linejoin:miter;stroke-opacity:1"/>
    <path d="M 435,-12.638 L 465,-12.638" id="path7134" style="fill:none;fill-rule:evenodd;stroke:#000000;stroke-width:1px;stroke-linecap:butt;stroke-linejoin:miter;stroke-opacity:1"/>
  </g>
  <use transform="translate(0,40)" id="use7178" x="0" y="0" width="744.09" height="1052.4" xlink:href="#g7158"/>
  <use transform="translate(0,80)" id="use7180" x="0" y="0" width="744.09" height="1052.4" xlink:href="#g7158"/>
  <use transform="translate(0,160)" id="use7195" x="0" y="0" width="744.09" height="1052.4" xlink:href="#g7158"/>
  <path d="M 305,110.01 L 305,140.01 L 335,125.01 L 305,110.01 z M 495,110.01 L 495,140.01 L 525,125.01 L 495,110.01 z" id="path7182" style="fill:#00ff00;fill-rule:evenodd;stroke:#000000;stroke-width:0.5;stroke-linecap:butt;stroke-linejoin:miter;stroke-miterlimit:4;stroke-dasharray:none;stroke-opacity:1"/>
  <path d="M 305,70.013 L 305,100.01 L 335,85.013 L 305,70.013 z M 495,70.013 L 495,100.01 L 525,85.013 L 495,70.013 z" id="path7186" style="fill:#ff0000;fill-rule:evenodd;stroke:#000000;stroke-width:0.5;stroke-linecap:butt;stroke-linejoin:miter;stroke-miterlimit:4;stroke-dasharray:none;stroke-opacity:1"/>
  <path d="M 305,230.01 L 305,260.01 L 335,245.01 L 305,230.01 z M 495,230.01 L 495,260.01 L 525,245.01 L 495,230.01 z" id="path7193" style="fill:#ffffff;fill-rule:evenodd;stroke:#000000;stroke-width:1;stroke-linecap:butt;stroke-linejoin:miter;stroke-miterlimit:4;stroke-dasharray:none;stroke-opacity:1"/>
  <text x="230.73145" y="128" id="text7205" xml:space="preserve" style="font-size:14px;font-style:normal;font-weight:normal;fill:#000000;fill-opacity:1;stroke:none;stroke-width:1px;stroke-linecap:butt;stroke-linejoin:miter;stroke-opacity:1;font-family:Bitstream Vera Sans"><tspan x="230.73145" y="128" id="tspan7207">Data</tspan></text>
  <text x="221.42773" y="148" id="text7223" xml:space="preserve" style="font-size:14px;font-style:normal;font-weight:normal;fill:#000000;fill-opacity:1;stroke:none;stroke-width:1px;stroke-linecap:butt;stroke-linejoin:miter;stroke-opacity:1;font-family:Bitstream Vera Sans"><tspan x="221.42773" y="148" id="tspan7225">Encode</tspan></text>
  <text x="222.78467" y="108" id="text7227" xml:space="preserve" style="font-size:14px;font-style:normal;font-weight:normal;fill:#000000;fill-opacity:1;stroke:none;stroke-width:1px;stroke-linecap:butt;stroke-linejoin:miter;stroke-opacity:1;font-family:Bitstream Vera Sans"><tspan x="222.78467" y="108" id="tspan7229">8b/10b</tspan></text>
  <text x="565.73145" y="128" id="text7261" xml:space="preserve" style="font-size:14px;font-style:normal;font-weight:normal;fill:#000000;fill-opacity:1;stroke:none;stroke-width:1px;stroke-linecap:butt;stroke-linejoin:miter;stroke-opacity:1;font-family:Bitstream Vera Sans"><tspan x="565.73145" y="128" id="tspan7263">Data</tspan></text>
  <text x="555.60742" y="148" id="text7265" xml:space="preserve" style="font-size:14px;font-style:normal;font-weight:normal;fill:#000000;fill-opacity:1;stroke:none;stroke-width:1px;stroke-linecap:butt;stroke-linejoin:miter;stroke-opacity:1;font-family:Bitstream Vera Sans"><tspan x="555.60742" y="148" id="tspan7267">Decode</tspan></text>
  <text x="557.49072" y="108" id="text7269" xml:space="preserve" style="font-size:14px;font-style:normal;font-weight:normal;fill:#000000;fill-opacity:1;stroke:none;stroke-width:1px;stroke-linecap:butt;stroke-linejoin:miter;stroke-opacity:1;font-family:Bitstream Vera Sans"><tspan x="557.49072" y="108" id="tspan7271">10b/8b</tspan></text>
  <text x="202.66992" y="50" id="text7273" xml:space="preserve" style="font-size:14px;font-style:normal;font-weight:normal;fill:#000000;fill-opacity:1;stroke:none;stroke-width:1px;stroke-linecap:butt;stroke-linejoin:miter;stroke-opacity:1;font-family:Bitstream Vera Sans"><tspan x="202.66992" y="50" id="tspan7275">TMDS Transmitter</tspan></text>
  <text x="512.34961" y="50" id="text7279" xml:space="preserve" style="font-size:14px;font-style:normal;font-weight:normal;fill:#000000;fill-opacity:1;stroke:none;stroke-width:1px;stroke-linecap:butt;stroke-linejoin:miter;stroke-opacity:1;font-family:Bitstream Vera Sans"><tspan x="512.34961" y="50" id="tspan7281">TMDS Receiver</tspan></text>
  <path d="M 125,245 L 275,245" id="path7283" style="fill:none;fill-rule:evenodd;stroke:#000000;stroke-width:1px;stroke-linecap:butt;stroke-linejoin:miter;stroke-opacity:1"/>
  <path d="M 555,245 L 582.72,245" id="path7285" style="fill:none;fill-rule:evenodd;stroke:#000000;stroke-width:1px;stroke-linecap:butt;stroke-linejoin:miter;stroke-opacity:1"/>
  <path d="M 706,217.48 L 610,217.48" id="path7287" style="fill:none;fill-rule:evenodd;stroke:#000000;stroke-width:1px;stroke-linecap:butt;stroke-linejoin:miter;stroke-opacity:1"/>
  <g transform="translate(90,97.638)" id="g7333">
    <path d="M 35,-22.638 L 105,-22.638 L 105,-32.638 L 130,-12.638 L 105,7.3622 L 105,-2.6378 L 35,-2.6378 L 35,-22.638 z" id="path7289" style="fill:#ff0000;fill-rule:evenodd;stroke:none;stroke-width:1px;stroke-linecap:butt;stroke-linejoin:miter;stroke-opacity:1"/>
    <path d="M 35,17.362 L 105,17.362 L 105,7.3622 L 130,27.362 L 105,47.362 L 105,37.362 L 35,37.362 L 35,17.362 z" id="path7293" style="fill:#00ff00;fill-rule:evenodd;stroke:none;stroke-width:1px;stroke-linecap:butt;stroke-linejoin:miter;stroke-opacity:1"/>
    <path d="M 35,57.362 L 105,57.362 L 105,47.362 L 130,67.362 L 105,87.362 L 105,77.362 L 35,77.362 L 35,57.362 z" id="path7295" style="fill:#0000ff;fill-rule:evenodd;stroke:none;stroke-width:1px;stroke-linecap:butt;stroke-linejoin:miter;stroke-opacity:1"/>
    <text x="58.324219" y="-8.3985596" id="text7297" xml:space="preserve" style="font-size:12px;font-style:normal;font-weight:normal;fill:#ffffff;fill-opacity:1;stroke:none;stroke-width:1px;stroke-linecap:butt;stroke-linejoin:miter;stroke-opacity:1;font-family:Bitstream Vera Sans"><tspan x="58.324219" y="-8.3985596" id="tspan7299">8 Bit R</tspan></text>
    <text x="58.324219" y="31.60144" id="text7301" xml:space="preserve" style="font-size:12px;font-style:normal;font-weight:normal;fill:#ffffff;fill-opacity:1;stroke:none;stroke-width:1px;stroke-linecap:butt;stroke-linejoin:miter;stroke-opacity:1;font-family:Bitstream Vera Sans"><tspan x="58.324219" y="31.60144" id="tspan7303">8 Bit G</tspan></text>
    <text x="58.324219" y="71.60144" id="text7305" xml:space="preserve" style="font-size:12px;font-style:normal;font-weight:normal;fill:#ffffff;fill-opacity:1;stroke:none;stroke-width:1px;stroke-linecap:butt;stroke-linejoin:miter;stroke-opacity:1;font-family:Bitstream Vera Sans"><tspan x="58.324219" y="71.60144" id="tspan7307">8 Bit B</tspan></text>
  </g>
  <use transform="translate(485,0)" id="use7344" x="0" y="0" width="744.09" height="1052.4" xlink:href="#g7333"/>
  <text x="132.22949" y="225" id="text7309" xml:space="preserve" style="font-size:12px;font-style:normal;font-weight:normal;fill:#000000;fill-opacity:1;stroke:none;stroke-width:1px;stroke-linecap:butt;stroke-linejoin:miter;stroke-opacity:1;font-family:Bitstream Vera Sans"><tspan x="132.22949" y="225" id="tspan7311">Pixel</tspan></text>
  <text x="130" y="240" id="text7313" xml:space="preserve" style="font-size:12px;font-style:normal;font-weight:normal;fill:#000000;fill-opacity:1;stroke:none;stroke-width:1px;stroke-linecap:butt;stroke-linejoin:miter;stroke-opacity:1;font-family:Bitstream Vera Sans"><tspan x="130" y="240" id="tspan7315">Clock</tspan></text>
  <rect width="115" height="290" x="10" y="10" id="rect7317" style="fill:#ffe6d5;fill-opacity:1;fill-rule:nonzero;stroke:#000000;stroke-width:1;stroke-linecap:butt;stroke-linejoin:miter;marker:none;marker-start:none;marker-mid:none;marker-end:none;stroke-miterlimit:4;stroke-dasharray:none;stroke-dashoffset:0;stroke-opacity:1;visibility:visible;display:inline;overflow:visible;enable-background:accumulate"/>
  <text x="36.512695" y="120.01074" id="text7319" xml:space="preserve" style="font-size:14px;font-style:normal;font-weight:normal;fill:#000000;fill-opacity:1;stroke:none;stroke-width:1px;stroke-linecap:butt;stroke-linejoin:miter;stroke-opacity:1;font-family:Bitstream Vera Sans"><tspan x="40.512695" y="120.01074" id="tspan7321">Display</tspan></text>
  <text x="32.660645" y="140.01074" id="text7323" xml:space="preserve" style="font-size:14px;font-style:normal;font-weight:normal;fill:#000000;fill-opacity:1;stroke:none;stroke-width:1px;stroke-linecap:butt;stroke-linejoin:miter;stroke-opacity:1;font-family:Bitstream Vera Sans"><tspan x="32.660645" y="140.01074" id="tspan7325">Controller</tspan></text>
  <text x="32.660645" y="160.01074" id="text7323" xml:space="preserve" style="font-size:14px;font-style:normal;font-weight:normal;fill:#000000;fill-opacity:1;stroke:none;stroke-width:1px;stroke-linecap:butt;stroke-linejoin:miter;stroke-opacity:1;font-family:Bitstream Vera Sans"><tspan x="50.660645" y="160.01074" id="tspan7325">TX</tspan></text>
  <text x="32.660645" y="180.01074" id="text7323" xml:space="preserve" style="font-size:14px;font-style:normal;font-weight:normal;fill:#000000;fill-opacity:1;stroke:none;stroke-width:1px;stroke-linecap:butt;stroke-linejoin:miter;stroke-opacity:1;font-family:Bitstream Vera Sans"><tspan x="12.660645" y="180.01074" id="tspan7325">(Graphics card)</tspan></text>
  <rect width="115" height="290" x="705" y="10" id="rect7346" style="fill:#d5e5ff;fill-opacity:1;fill-rule:nonzero;stroke:#000000;stroke-width:1;stroke-linecap:butt;stroke-linejoin:miter;marker:none;marker-start:none;marker-mid:none;marker-end:none;stroke-miterlimit:4;stroke-dasharray:none;stroke-dashoffset:0;stroke-opacity:1;visibility:visible;display:inline;overflow:visible;enable-background:accumulate"/>
  <text x="736.22266" y="120.01074" id="text7350" xml:space="preserve" style="font-size:14px;font-style:normal;font-weight:normal;fill:#000000;fill-opacity:1;stroke:none;stroke-width:1px;stroke-linecap:butt;stroke-linejoin:miter;stroke-opacity:1;font-family:Bitstream Vera Sans"><tspan x="736.22266" y="120.01074" id="tspan7352">Display</tspan></text>
  <text x="727.66064" y="140.01074" id="text7354" xml:space="preserve" style="font-size:14px;font-style:normal;font-weight:normal;fill:#000000;fill-opacity:1;stroke:none;stroke-width:1px;stroke-linecap:butt;stroke-linejoin:miter;stroke-opacity:1;font-family:Bitstream Vera Sans"><tspan x="727.66064" y="140.01074" id="tspan7356">Controller</tspan></text>
  <text x="727.66064" y="140.01074" id="text7354" xml:space="preserve" style="font-size:14px;font-style:normal;font-weight:normal;fill:#000000;fill-opacity:1;stroke:none;stroke-width:1px;stroke-linecap:butt;stroke-linejoin:miter;stroke-opacity:1;font-family:Bitstream Vera Sans"><tspan x="747.66064" y="160.01074" id="tspan7356">RX</tspan></text>
  <text x="727.66064" y="140.01074" id="text7354" xml:space="preserve" style="font-size:14px;font-style:normal;font-weight:normal;fill:#000000;fill-opacity:1;stroke:none;stroke-width:1px;stroke-linecap:butt;stroke-linejoin:miter;stroke-opacity:1;font-family:Bitstream Vera Sans"><tspan x="727.66064" y="180.01074" id="tspan7356">(Display)</tspan></text>
  <text x="670.22949" y="233" id="text7368" xml:space="preserve" style="font-size:12px;font-style:normal;font-weight:normal;fill:#000000;fill-opacity:1;stroke:none;stroke-width:1px;stroke-linecap:butt;stroke-linejoin:miter;stroke-opacity:1;font-family:Bitstream Vera Sans"><tspan x="670.22949" y="233" id="tspan7370">Pixel</tspan></text>
  <text x="668" y="248" id="text7372" xml:space="preserve" style="font-size:12px;font-style:normal;font-weight:normal;fill:#000000;fill-opacity:1;stroke:none;stroke-width:1px;stroke-linecap:butt;stroke-linejoin:miter;stroke-opacity:1;font-family:Bitstream Vera Sans"><tspan x="668" y="248" id="tspan7374">Clock</tspan></text>
</svg>